<?xml version="1.0" encoding="UTF-8" standalone="no"?>
<svg width="1975px" height="318px" viewBox="0 0 1975 318" version="1.1" xmlns="http://www.w3.org/2000/svg" xmlns:xlink="http://www.w3.org/1999/xlink">
    <!-- Generator: Sketch 3.8.3 (29802) - http://www.bohemiancoding.com/sketch -->
    <title>Group</title>
    <desc>Created with Sketch.</desc>
    <defs></defs>
    <g id="Page-1" stroke="none" stroke-width="1" fill="none" fill-rule="evenodd">
        <g id="Group" fill="#FFFFFF">
            <text id="MVDECA" font-family="GothamMedium, Gotham Medium" font-size="305.678219" font-weight="normal" letter-spacing="-4.0999999">
                <tspan x="616.900672" y="260.781518">MV</tspan>
                <tspan x="1103.28803" y="260.781518" font-family="GothamThin, Gotham Thin" font-style="condensed">DECA</tspan>
            </text>
            <g id="deca-logo-white">
                <g id="Page-1">
                    <path d="M0.769866599,18.4018507 C1.1778959,18.2824832 1.50123987,18.1400123 1.83613184,18.0899549 C7.0481287,17.3583476 12.2678243,16.6344413 17.4836704,15.9066845 C22.3030354,15.2366862 27.1224003,14.547435 31.9456144,13.8889884 C36.1952783,13.3075531 40.4526403,12.74152 44.7100027,12.1754869 C49.0943929,11.590201 53.4826326,10.9895129 57.8708722,10.4311809 C62.4361812,9.84589501 67.0053393,9.28756309 71.5744978,8.72923113 C75.7048319,8.2248071 79.8351664,7.72038308 83.96935,7.24291299 C88.2344109,6.75389121 92.5033212,6.28027171 96.7722315,5.83360615 C100.82173,5.41389455 104.871228,5.02113691 108.928425,4.65148267 C114.082682,4.18171372 119.240788,3.71194477 124.402744,3.30378489 C129.429973,2.9033261 134.461051,2.54137298 139.495978,2.24873003 C145.019771,1.92528256 150.543564,1.67114526 156.071206,1.44396192 C160.671159,1.25528423 165.274961,1.10126162 169.874914,1.03965258 C176.430329,0.947239021 182.985743,0.889480542 189.541157,0.931836761 C194.676167,0.966491844 199.811177,1.08970993 204.942338,1.31689327 C211.2206,1.59413396 217.491163,1.99459273 223.761727,2.39120094 C232.334192,2.93413062 240.683395,4.65148267 248.836282,7.31222317 C255.487929,9.48009132 262.116481,11.7134191 268.768128,13.8697356 C274.407401,15.7026046 280.085167,17.4276577 285.947701,18.4326552 C289.054113,18.9640332 292.191319,19.3490897 295.309279,18.5866778 C296.414038,18.3171383 297.511098,17.8935761 298.519623,17.3698993 C302.488285,15.3021458 306.49929,13.3306564 310.706611,11.7865799 C317.208135,9.39152834 323.87133,7.62026838 330.769333,6.85785647 C334.414652,6.4573977 338.079218,6.09159403 341.747633,5.96837595 C344.973375,5.85670956 348.214512,6.02998499 351.440254,6.20711098 C363.650338,6.8771093 375.529379,9.50319473 387.389175,12.298705 C403.063657,15.9875464 418.772786,19.5531697 434.485762,23.0764368 C448.085458,26.1222338 461.715943,29.0371116 475.331034,32.009748 C480.346715,33.1033083 485.358549,34.2084206 490.37038,35.3173832 C490.793806,35.4097969 491.213382,35.5561184 491.679153,35.6870376 C491.29037,37.6277225 490.331886,39.1910518 489.061607,40.5772553 C487.852915,41.8979992 486.417115,42.9299504 484.811943,43.7231669 C480.966459,45.6214956 476.890014,46.4878727 472.617254,46.4647692 C465.311223,46.4301143 457.99749,46.4724705 450.687605,46.3222984 C443.781901,46.1836782 436.8762,45.883334 429.974346,45.5829901 C416.647954,45.0092558 403.313864,45.0054052 389.975927,45.0439107 C385.814796,45.0554626 381.649818,45.051612 377.484839,45.059313 C377.099907,45.059313 376.718822,45.1016692 376.176066,45.1324737 C376.399328,45.6214956 376.522508,45.9872992 376.718822,46.3145974 C385.749359,61.3125486 395.045498,76.1295231 405.377106,90.2726487 C412.602305,100.157049 420.289422,109.664095 428.680968,118.585854 C440.178927,130.807548 452.816288,141.65844 467.089614,150.549395 C482.610126,160.214314 499.320078,166.956653 517.138641,170.972792 C523.532382,172.416754 529.987714,173.502614 536.504636,174.207267 C536.904966,174.249623 537.293749,174.334336 537.686382,174.392094 C539.060592,174.592324 539.068292,174.592324 539.095236,175.913068 C539.114484,176.752491 539.099086,177.595765 539.099086,178.473693 C538.860427,178.616164 538.656411,178.78944 538.417755,178.874152 C534.737793,180.148689 531.061678,181.430928 527.370168,182.670809 C524.667936,183.575692 521.873321,183.56029 519.086403,183.252245 C513.986036,182.690062 508.885672,182.097075 503.789156,181.457881 C497.992059,180.733975 492.198813,179.967713 486.413264,179.170646 C480.627719,178.373579 474.83832,177.572661 469.06817,176.660077 C462.60129,175.631976 456.157506,174.469106 449.698327,173.383246 C444.809673,172.563076 439.92872,171.719802 435.024671,170.995896 C433.015318,170.699402 430.959774,170.664747 428.942724,171.09216 C426.382917,171.63509 424.554484,173.098305 423.499766,175.508758 C422.491242,177.811396 422.006226,180.248804 421.875348,182.728568 C421.617443,187.680395 421.40573,192.639923 421.34414,197.59945 C421.278703,203.001793 421.313347,208.415688 421.475018,213.818031 C421.652087,219.751751 421.975429,225.681622 422.329568,231.607641 C422.641365,236.821307 423.041696,242.034972 423.48052,247.244787 C423.826961,251.349489 424.269633,255.44649 424.700757,259.539641 C425.37439,265.877671 426.19045,272.208 426.725508,278.557582 C427.29521,285.319174 426.814041,292.015307 424.51984,298.484257 C422.137103,305.195791 418.145344,310.605836 411.782396,314.059792 C407.617418,316.316224 403.129097,317.317371 398.405965,317.509899 C390.634162,317.825645 383.328128,315.838754 376.118327,313.262726 C368.053973,310.378652 360.320665,306.759121 352.729779,302.819993 C339.907652,296.170067 327.420414,288.927154 315.079454,281.433954 C307.584802,276.882586 300.263371,272.046276 292.895747,267.290828 C282.698864,260.706362 272.505831,254.121896 261.858576,248.276738 C257.462637,245.862434 252.970466,243.679163 248.089512,242.404626 C236.279758,239.316473 225.955847,242.215948 216.87527,250.140411 C211.251395,255.049882 206.632195,260.802626 202.782862,267.179162 C199.576368,272.489091 196.443011,277.841377 193.190324,283.120502 C191.681386,285.569461 190.049268,287.949111 188.324767,290.255599 C184.921957,294.810817 180.514471,298.041442 175.129254,299.932069 C172.835051,300.736837 170.467712,300.96017 168.069577,300.998675 C163.504268,301.075687 158.938959,301.091089 154.396746,300.594366 C149.727505,300.078391 145.123703,299.196611 140.608436,297.879718 C138.422015,297.240524 136.589732,296.016044 134.980711,294.468117 C133.868253,293.39766 132.844331,292.223238 131.878148,291.01416 C130.026619,288.69612 129.164369,286.031529 128.98345,283.047341 C128.679353,278.184077 128.259775,273.328515 127.709321,268.492205 C127.07803,262.951242 126.365904,257.414129 125.488255,251.907821 C123.61748,240.178999 120.996084,228.615752 117.712603,217.202677 C113.05491,200.999499 107.184677,185.254539 100.055712,169.975496 C91.2715346,151.146233 81.0746515,133.110186 69.1532673,116.098389 C58.1711201,100.422738 46.9041227,84.9473172 35.7526049,69.3948847 C28.0577882,58.6633596 20.2513409,48.0126965 12.6951002,37.1887581 C8.61480723,31.3474507 4.96179024,25.2096499 1.12400524,19.1989177 C0.993127913,18.9601827 0.91229192,18.7060454 0.769866599,18.4018507 L0.769866599,18.4018507 L0.769866599,18.4018507 L0.769866599,18.4018507 Z M360.632459,171.496469 C361.148272,171.943135 361.5563,172.328191 361.991274,172.686294 C365.328645,175.458701 368.666019,178.227257 372.011088,180.991963 C375.048213,183.498681 378.100733,185.993847 381.130158,188.508266 C381.923121,189.170563 382.68144,189.413149 383.651473,188.824012 C387.204404,186.663845 390.799684,184.572989 394.33722,182.389718 C395.307253,181.792881 396.181052,181.015066 396.99326,180.210298 C397.401288,179.802138 397.75158,179.170646 397.820867,178.608463 C398.236593,175.239219 397.709235,172.077905 395.507418,169.351705 C393.702081,167.114526 391.28085,165.874644 388.540124,165.270106 C383.678416,164.203499 378.835957,164.457636 374.155166,166.109529 C369.86316,167.626651 365.64814,169.363256 361.402326,171.007448 C361.171367,171.096011 360.9789,171.269286 360.632459,171.496469 L360.632459,171.496469 L360.632459,171.496469 L360.632459,171.496469 Z" id="Shape"></path>
                </g>
            </g>
        </g>
    </g>
</svg>